<svg width="32" height="44" viewBox="0 0 32 44" fill="none" xmlns="http://www.w3.org/2000/svg">
<path d="M28.2175 7.10239C27.8932 6.60575 27.4194 6.59149 26.8795 6.57523C26.8183 6.57339 26.7563 6.57153 26.6936 6.56893C26.6458 6.56673 26.5931 6.56758 26.538 6.56846C26.319 6.57198 26.0629 6.57609 25.9339 6.39212C25.7843 6.17883 25.7985 5.76663 25.8102 5.42635C25.8139 5.31882 25.8173 5.21841 25.8153 5.1338C25.7943 4.34332 25.7504 3.50363 25.4453 3.22292C25.2152 3.01231 24.5268 3.04149 23.892 3.0684C23.6862 3.07712 23.486 3.0856 23.3089 3.0856H9.79596C9.52389 3.0856 9.23869 3.06345 8.95847 3.04168C8.41245 2.99927 7.88533 2.95832 7.511 3.0856C6.96775 3.27123 6.93096 4.24667 6.89633 5.16519L6.89446 5.21461C6.86538 5.97288 6.67746 6.55799 6.05465 6.49906C5.33029 6.43161 4.6095 6.41035 4.28199 7.06594C3.89519 7.84161 3.97496 8.65358 4.11785 10.1079C4.13826 10.3157 4.15996 10.5365 4.18177 10.7723H28.4264C28.4403 10.6 28.455 10.4299 28.4696 10.2625C28.5831 8.95406 28.682 7.81402 28.2175 7.10239Z" fill="#8047F8"/>
<path fill-rule="evenodd" clip-rule="evenodd" d="M6.06987 12.2147C6.44852 17.3395 6.82304 22.4701 7.19757 27.6009L7.1978 27.604C7.40115 30.3898 7.60451 33.1757 7.80853 35.9606H8.58212C8.63483 36.3965 8.69515 36.9347 8.75874 37.5021C8.88783 38.6539 9.03044 39.9264 9.15034 40.7083H9.2359C10.0239 40.42 15.4712 38.0916 15.4736 28.8218C15.4726 28.7954 15.4735 28.7689 15.4762 28.7427H14.1304C14.0653 28.7421 14.0021 28.7203 13.9507 28.6808C13.8993 28.6413 13.8624 28.5861 13.8458 28.5238C13.7146 28.1999 13.6089 27.8664 13.5295 27.5264C12.7378 27.9736 12.1091 28.6564 11.733 29.4775C11.3759 28.6365 11.3292 27.6983 11.6009 26.8267C11.8727 25.9551 12.4456 25.2057 13.2195 24.7093C13.2295 22.0043 14.2423 19.3968 16.0661 17.3804L16.0946 17.3553C16.1476 17.3095 16.2155 17.284 16.2859 17.2834C16.3266 17.2838 16.3668 17.2925 16.4039 17.309C16.4415 17.3257 16.4751 17.35 16.5026 17.3804C18.3478 19.3996 19.3552 22.0321 19.3239 24.7531C20.1123 25.2356 20.6969 25.9845 20.9691 26.8608C21.2413 27.7371 21.1827 28.6813 20.8042 29.5181C20.4301 28.6957 19.8008 28.0123 19.0076 27.5671C18.9592 27.8966 18.8699 28.219 18.7419 28.527C18.6977 28.6583 18.6091 28.7427 18.5205 28.7427H17.0853C17.0876 28.7584 17.0892 28.7742 17.0901 28.7901L17.0907 28.7937V28.8014C17.0912 28.815 17.0912 28.8287 17.0907 28.8424C17.1104 38.3783 22.902 40.5428 23.3902 40.7083H23.5572C23.5998 39.9572 23.7386 38.9208 23.8739 37.9104C23.9671 37.2142 24.0587 36.5302 24.116 35.9606H24.8985C25.149 32.4527 25.4066 28.9546 25.6642 25.4564L25.6644 25.4545L25.6645 25.4535C25.994 20.9789 26.3235 16.5042 26.6381 12.0087H6.11998C6.06092 12.0202 6.06495 12.1169 6.06987 12.2147ZM16.2859 17.2834L16.2844 17.2834H16.2875L16.2859 17.2834Z" fill="#8047F8"/>
<path d="M16.2875 17.5806L16.2877 17.5808L16.2875 17.5806ZM16.2875 17.5806V17.5785M29.4736 6.28247L29.4734 6.28224C28.8424 5.316 27.9005 5.1313 27.3147 5.09037C27.3043 4.70062 27.2871 4.20907 27.2201 3.76401C27.1862 3.53859 27.1328 3.27592 27.039 3.01731C26.9504 2.77301 26.7853 2.41745 26.4608 2.11898L26.4581 2.11643C26.133 1.81893 25.7664 1.7024 25.5555 1.65015C25.3216 1.59222 25.091 1.56938 24.9042 1.55893C24.549 1.53907 24.1553 1.55583 23.8616 1.56833L23.8284 1.56974C23.6142 1.57882 23.4479 1.5856 23.3089 1.5856H9.79596C9.59239 1.5856 9.36649 1.56886 9.07465 1.54619C9.06619 1.54553 9.05767 1.54487 9.04907 1.5442C8.79404 1.52436 8.47505 1.49954 8.16809 1.50001C7.85904 1.50047 7.44329 1.52428 7.0281 1.66546L7.02599 1.66618C5.92994 2.0407 5.63878 3.10222 5.54591 3.53773C5.444 4.01567 5.41828 4.55832 5.40266 4.96797C5.17808 4.97261 4.93749 4.99381 4.69886 5.04603C4.03844 5.19054 3.34613 5.58284 2.94011 6.39559L2.93963 6.39656C2.35557 7.56781 2.47856 8.79334 2.60254 10.0288C2.61009 10.104 2.61764 10.1793 2.62503 10.2546C2.64549 10.4628 2.66678 10.6796 2.68815 10.9104L2.81414 12.2723H4.18177H4.57063C4.57112 12.2808 4.57152 12.2865 4.57168 12.2888C4.57173 12.2895 4.57176 12.2899 4.57176 12.29L4.57265 12.3076L4.57395 12.3252C4.95253 17.4491 5.327 22.579 5.70152 27.7097L5.70155 27.7101L5.70156 27.7101L5.70178 27.7132L5.70179 27.7133L5.70185 27.7141C5.90518 30.4996 6.10853 33.2853 6.31254 36.0702L6.4144 37.4606H7.24469C7.25241 37.5294 7.26021 37.599 7.26807 37.6692L7.27151 37.6998C7.39816 38.8299 7.54313 40.1235 7.66767 40.9356L7.86281 42.2083H9.15034H9.2359H9.50171L9.75134 42.117C10.3113 41.9121 12.1279 41.1296 13.8081 39.0856C14.7919 37.8888 15.6971 36.2977 16.2852 34.2091C16.9084 36.41 17.8834 38.0558 18.9285 39.2685C20.6685 41.2876 22.5022 41.9911 22.9086 42.1289L23.1428 42.2083H23.3902H23.5572H24.9744L25.0548 40.7933C25.0934 40.1128 25.2223 39.1424 25.3606 38.1095L25.363 38.0921C25.3911 37.8822 25.4194 37.6705 25.4469 37.4606H26.2953L26.3947 36.0674C26.6451 32.5615 26.9025 29.0652 27.1602 25.5668C27.1602 25.5667 27.1602 25.5667 27.1602 25.5666L27.1603 25.5652L27.1604 25.5636L27.1604 25.5633L27.1606 25.5613C27.4861 21.1406 27.8119 16.7167 28.1233 12.2723H28.4264H29.8107L29.9216 10.8924C29.935 10.7256 29.9494 10.5603 29.9639 10.3922L29.9684 10.3412C30.0219 9.72554 30.0818 9.03552 30.0593 8.40526C30.0366 7.76516 29.9267 6.97663 29.4736 6.28247ZM15.3535 27.2427H15.0039C14.9992 27.2236 14.9947 27.2045 14.9902 27.1853L14.6186 25.594L14.7165 25.5312L14.7195 24.7148C14.7263 22.8668 15.2758 21.0698 16.2878 19.5359C17.3053 21.0728 17.8453 22.8814 17.824 24.7358L17.8169 25.3542L17.5392 27.2427H17.1409H17.0853H15.4762H15.3535Z" stroke="white" stroke-width="3"/>
</svg>
